<?xml version="1.0" encoding="utf-8"?>
<!-- Generator: Adobe Illustrator 25.2.0, SVG Export Plug-In . SVG Version: 6.00 Build 0)  -->
<svg version="1.1" id="Layer_1" xmlns="http://www.w3.org/2000/svg" xmlns:xlink="http://www.w3.org/1999/xlink" x="0px" y="0px"
	 viewBox="0 0 600 138.6" style="enable-background:new 0 0 600 138.6;" xml:space="preserve">
<style type="text/css">
	.st0{enable-background:new    ;}
	.st1{fill:#FFFFFF;}
</style>
<g class="st0">
	<path class="st1" d="M291.4-214.7c1.2,0,2.3,0.5,3.2,1.3c0.9,0.8,1.4,1.9,1.5,3.1c0.1,1.2-0.2,2.4-1,3.3l-45.6,59.8
		c0.9,0.3,1.7,0.9,2.3,1.7c0.6,0.8,0.9,1.8,0.9,2.7c0,1.4-0.5,2.5-1.4,3.4c-0.9,0.9-2,1.4-3.3,1.4h-5.6l-45.1,59.3
		c-1,1.2-2.3,1.9-3.9,1.9c-1.1,0-2-0.3-2.9-0.9c-1.1-0.8-1.7-1.9-1.9-3.2c-0.2-1.3,0.1-2.5,0.9-3.6l40.7-53.3h-21.8l-48.9,38.6
		c-0.9,0.7-2,1-3.1,1c-1,0-1.9-0.3-2.8-0.8c-1.2-0.9-1.9-2.2-2-3.8c0-1.2,0.3-2.2,0.9-3c0.6-0.8,1.8-2,3.8-3.6
		c7.4-6.5,11.9-11.4,13.3-14.8c0.6-1.2,1.5-2,2.7-2.5c1.2-0.5,2.5-0.5,3.7,0.1c0.6,0.2,1.1,0.6,1.5,1l15.3-12.2l-103.9,0.2
		c-0.2,0-0.4,0-0.6,0c-1.2-0.1-2.3-0.7-3.1-1.7c-0.8-1-1.2-2.1-1.2-3.4c0.1-1.3,0.6-2.4,1.5-3.3c0.9-0.9,2-1.3,3.3-1.3h0.7
		c1.8-0.1,5.2-0.5,10.3-1.3c5-0.8,8.1-1.3,9.2-1.7c1.2-0.6,2.4-0.7,3.6-0.3c1.2,0.4,2.2,1.2,2.8,2.4c0.2,0.3,0.3,0.6,0.4,0.9
		l89.3-0.2l71.6-56.5c0.5-1.2,1.3-2.1,2.5-2.6c1.3-0.7,4.3-3,9.1-7.1C289.2-214.4,290.2-214.8,291.4-214.7z M220.5-147.4h17.1
		l25.6-33.6L220.5-147.4z"/>
	<path class="st1" d="M293.8-150c1.1-0.2,2.1,0,3.1,0.6c0.9,0.6,1.5,1.5,1.7,2.6c0.2,1.1,0,2.1-0.7,3.1c-1.2,1.9-2.8,3.4-4.6,4.5
		c-1.8,1.1-3.8,1.8-6,2c-2.2,0.2-4.5-0.4-6.7-1.8c-0.9-0.6-1.7-1.2-2.4-2c-1.4,1.9-2.7,3.6-4.1,5.1c-7.3,8.8-13.1,13.5-17.3,14.2
		c-0.4,0.1-0.9,0.1-1.3,0.1c-1.6,0-3-0.5-4.3-1.5c-0.9-0.7-1.5-1.6-1.9-2.7c-0.4-1.1-0.4-2.9,0-5.4c0.4-2.6,1.3-5.8,2.8-9.8
		c3-8,6.7-15.2,11.1-21.7c0.7-0.9,1.6-1.5,2.6-1.7c1.1-0.2,2.1,0,3.1,0.6c1,0.6,1.5,1.5,1.8,2.6c0.2,1.1,0,2.1-0.6,3.1
		c-3,4.4-5.6,9.3-8,14.6c-2.4,5.3-3.9,9.6-4.6,12.8c2.2-1.5,5.2-4.6,9.1-9.1c3.9-4.5,8.4-10.4,13.4-17.7c0.4-0.6,0.8-1.2,1.2-1.9
		c0.7-0.9,1.6-1.5,2.7-1.6c1.1-0.2,2.1,0.1,3,0.7c0.9,0.6,1.5,1.5,1.7,2.6c0.2,1.1,0,2.1-0.6,3.1c-0.4,0.5-0.8,1.1-1.2,1.7
		c-1.9,3-2.6,5.2-2.3,6.7c0,0.2,0.1,0.3,0.3,0.4c0.6,0.4,1.1,0.6,1.8,0.6c0.6,0,1.2-0.1,1.6-0.3c0.5-0.2,0.9-0.5,1.4-0.9
		c0.5-0.4,0.8-0.7,1-1c0.2-0.2,0.4-0.5,0.6-0.7C291.8-149.2,292.7-149.8,293.8-150z"/>
	<path class="st1" d="M323.5-158.8c0.4,1.2,0.4,2.4-0.2,3.4c-0.6,1-1.5,2.2-2.9,3.7c-2.9,3-4.4,5.1-4.3,6.3c0,1.1-0.3,2.1-1.1,2.9
		c-0.8,0.8-1.7,1.2-2.8,1.3c-1.1,0.1-2.1-0.3-2.9-1.1c-0.8-0.8-1.3-1.7-1.3-2.9c-0.1-2.7,1.1-5.5,3.3-8.5c-2.8,0.4-5.3,1.2-7.6,2.4
		c-2.3,1.1-3.8,2.5-4.6,4c0.4,0.8,1.6,2.4,3.4,4.7c2.1,2.7,3.5,4.7,4.3,6c2,3.8,1.9,6.8-0.6,8.9c-3.5,3.2-8.2,4.7-14.1,4.7
		c-2.5,0-4.8-0.3-6.8-1c-3.9-1.3-6.2-3.5-6.8-6.6c-0.7-3.3,0.8-6.5,4.4-9.8c0.9-0.7,1.9-1.1,3-1c1.1,0.1,2.1,0.5,2.8,1.3
		c0.8,0.8,1.1,1.8,1.1,3c-0.1,1.1-0.5,2.1-1.4,2.8c-0.9,0.7-1.4,1.4-1.7,2c0.9,0.6,2.2,0.9,4,1c3.4,0.3,6.3-0.2,8.7-1.7
		c-0.5-0.9-1.6-2.5-3.4-4.6c-1.5-1.9-2.6-3.4-3.2-4.3c-0.6-1-1.2-2.1-1.7-3.5c-0.5-1.4-0.5-2.6-0.1-3.8c0.7-2.2,2-4.2,3.8-5.9
		c1.8-1.7,3.8-3.1,6-4c2.2-0.9,4.5-1.7,7-2.3c2.5-0.6,4.7-0.9,6.8-0.9c2,0,3.8,0.1,5.4,0.3C321.9-161.6,323-160.5,323.5-158.8z"/>
	<path class="st1" d="M344.4-163.5c-3.1,4-5.9,7.9-8.5,11.5c-7.4,10.5-11.6,17.8-12.8,22.1c5.1,0.4,12.6-5.8,22.3-18.6
		c0.7-0.9,1.6-1.4,2.7-1.5c1.1-0.2,2.1,0.1,3,0.8c0.9,0.7,1.4,1.6,1.6,2.7c0.2,1.1-0.1,2.1-0.8,3.1c-2.4,3.1-4.6,5.8-6.6,8.1
		c-2,2.3-4.3,4.6-6.8,6.8c-2.5,2.2-5,3.9-7.5,5.1c-2.5,1.2-5,1.8-7.4,1.9c-1.7,0-3.3-0.3-4.9-0.9c-2-0.7-3.3-2.2-3.8-4.4
		c-0.5-2.2,0.2-5.4,2-9.6c1.8-4.2,5.8-10.8,11.9-19.6c1.7-2.3,3.5-4.7,5.4-7.3h-0.6c-1.1,0-2.1-0.4-2.9-1.2
		c-0.8-0.8-1.2-1.7-1.3-2.9c0-1.1,0.4-2.1,1.2-2.9c0.8-0.8,1.8-1.2,2.9-1.2l7-0.1c2.7-3.3,4.4-5.3,5.2-6.2c0.8-0.8,1.7-1.3,2.8-1.3
		c1.1-0.1,2.1,0.3,2.9,1.1c0.8,0.8,1.3,1.7,1.3,2.9c0,1.1-0.3,2.1-1.1,2.9c-0.1,0.1-0.3,0.3-0.6,0.6h1.4c1.1,0,2.1,0.4,2.9,1.2
		c0.8,0.8,1.2,1.8,1.2,2.9s-0.4,2.1-1.2,2.9c-0.8,0.8-1.7,1.2-2.8,1.2L344.4-163.5z"/>
	<path class="st1" d="M375-157.1c0.1,0.4,0.2,0.7,0.2,1.1c0,0.3,0,0.7,0,0.9c0,0.3-0.1,0.6-0.3,1c-0.2,0.4-0.3,0.7-0.4,1
		c-0.1,0.3-0.3,0.7-0.7,1.2c-0.3,0.5-0.6,0.9-0.8,1.2c-0.2,0.3-0.6,0.8-1.1,1.5c-3,4.3-4.6,7.1-4.8,8.4c0.6,0.7,0.9,1.6,0.9,2.6
		c0,1-0.3,1.9-0.9,2.6c-0.7,0.9-1.7,1.4-2.8,1.5c-1.1,0.1-2.1-0.2-3-1c-3-2.4-3.3-6-1.1-10.9c0.3-0.6,0.7-1.3,1-2
		c-1.2,0.8-2.4,1.7-3.6,2.8c-5.8,4.6-11.5,10.4-17.2,17.4c-0.1,0.1-0.2,0.3-0.4,0.5c-0.8,1.1-1.5,1.9-2,2.6
		c-1.3,1.6-2.6,2.4-3.9,2.4c-0.4,0-0.9-0.1-1.3-0.2c-1-0.3-1.7-0.9-2.3-1.8c-0.5-0.9-0.7-1.9-0.5-2.9c0.1-0.6,0.4-1.2,0.7-1.7
		c1.1-1.3,2.1-2.6,3.2-4c8.7-11.7,14.4-20.6,17.1-26.6c0.5-1,1.3-1.7,2.3-2.1c1.1-0.4,2.1-0.4,3.1,0.1c1,0.5,1.7,1.2,2.1,2.3
		c0.4,1.1,0.4,2.1-0.1,3.2v0.1c5.8-3.7,10.3-5,13.7-3.9C373.7-159.4,374.6-158.5,375-157.1z"/>
	<path class="st1" d="M392.8-128.2c-2.4,2.1-4.9,3.7-7.3,4.8c-2.5,1.1-4.8,1.7-7.1,1.7c-2.4,0-4.5-0.6-6.2-2c-2.2-1.6-3.4-4-3.8-7.1
		c-0.3-2.7,0.2-5.7,1.4-9c1.2-3.3,3.2-6.5,5.8-9.6c2.3-2.8,4.8-5.1,7.6-7c1.2-0.7,2.4-0.9,3.6-0.5c2.1-1.7,4.3-2.8,6.5-3.2
		c2.7-0.4,5.1,0.1,7.2,1.6c2.2,1.7,3.4,4,3.8,7.1c0.5,4.3-0.8,9.1-4,14.3c4.4-1.6,9.1-5.3,14.2-11c0.7-0.9,1.7-1.3,2.8-1.4
		c1.1-0.1,2.1,0.3,3,1c0.9,0.7,1.3,1.7,1.4,2.8c0.1,1.1-0.3,2.2-1,3c-5.1,5.8-10.1,9.8-14.9,12C401-128.2,396.7-127.5,392.8-128.2z
		 M384.9-132.5c-2.6-2.7-4.1-6.1-4.4-10c-1.5,2.1-2.6,4.1-3.3,6.1c-0.7,2-0.9,3.5-0.7,4.8c0.1,0.7,0.2,1.2,0.6,1.4
		c0.4,0.5,1.4,0.5,2.9,0.1C381.6-130.5,383.2-131.3,384.9-132.5z M395.5-151.7c-0.1-0.1-0.3-0.1-0.6-0.1c-0.1,0-0.2,0-0.4,0
		c-1.5,0.2-2.9,1.4-4.4,3.3c-1.1,1.7-1.6,3.5-1.5,5.5c0.1,2,0.9,3.7,2.2,5c1.9-2.3,3.2-4.6,4.1-6.8c0.9-2.2,1.2-4.1,1.1-5.5
		C396-151,395.8-151.5,395.5-151.7z"/>
	<path class="st1" d="M453.1-149.6c1.1-0.2,2.1,0.1,3,0.8c0.9,0.7,1.4,1.6,1.6,2.7c0.2,1.1-0.1,2.1-0.8,3
		c-10.2,13.3-18.9,20-26.1,20c-1.2,0-2.3-0.2-3.4-0.6c-5.1-1.5-8.7-6.3-10.8-14.1c-2.4,3.2-4.4,5.9-6,8.2c-1.7,2.3-3,4.1-4.1,5.6
		c-0.8,1.2-1.9,1.8-3.3,1.8c-0.9,0-1.7-0.3-2.4-0.8c-0.9-0.6-1.4-1.5-1.6-2.6c-0.2-1.1,0-2.1,0.6-3.1c2.5-3.4,8.7-11.9,18.8-25.4
		c10.8-14.5,16.5-22.2,17.1-23.2c0.6-0.9,1.4-1.5,2.4-1.9c1.1-0.3,2.1-0.2,3.1,0.3c1,0.5,1.6,1.3,2,2.4c0.3,1.1,0.2,2.1-0.3,3.1
		c-0.5,0.9-6.1,8.5-16.8,22.9c6.3-0.9,11.4-3.7,15.4-8.5c0.7-0.9,1.7-1.3,2.8-1.4c1.1-0.1,2.1,0.3,3,1c0.9,0.7,1.3,1.6,1.4,2.8
		c0.1,1.1-0.2,2.2-1,3c-6,6.9-13.9,10.8-23.6,11.5c0.5,2.5,1.2,4.8,2.2,6.9c1,2,2.1,3.3,3.4,3.6c0.3,0.1,0.6,0.1,1,0.1
		c0.3,0,0.9,0,1.5-0.2c0.7-0.2,1.4-0.5,2.2-0.8c0.8-0.4,1.7-1,2.9-1.8c1.1-0.8,2.3-1.8,3.6-3c1.2-1.2,2.7-2.7,4.4-4.6
		c1.7-1.9,3.4-4,5.2-6.3C451.1-148.9,452-149.5,453.1-149.6z"/>
	<path class="st1" d="M492-150c1.1-0.2,2.1,0.1,3,0.8c0.9,0.7,1.4,1.6,1.5,2.7c0.1,1.1-0.2,2.2-0.8,3c-4.8,6.3-10.6,11.4-17.4,15.5
		c-6.8,4.1-13.1,6.1-18.9,6.3c-0.2,0-0.4,0-0.6,0c-5.3,0-9.3-1.7-12.1-5.1c-1.8-2.1-2.6-4.7-2.5-7.8c0.2-3.1,1.3-6.4,3.3-9.9
		c3.1-5.1,7.3-9.4,12.7-12.7c5.4-3.3,10.6-4.4,15.7-3.4c1.5,0.3,2.8,1,3.9,2c1,1,1.7,2.3,2.1,3.8c0.5,2.3,0.1,4.7-1.1,7.2
		c-1.2,2.5-3.1,4.7-5.7,6.6c-2.6,2-5.3,3.5-8.1,4.4c-2.8,1-5.4,1.3-7.7,0.9c-2.3-0.4-4.2-1.3-5.7-2.8c-1.4,3.1-1.6,5.2-0.6,6.4
		c1.2,1.4,3.3,2.1,6.2,2c4.3-0.1,9.3-1.7,15-5.1c5.7-3.3,10.7-7.8,15.1-13.4C490-149.3,490.9-149.8,492-150z M473.9-152.6
		c-2.4-0.4-4.9,0.1-7.8,1.5c-2.8,1.4-5.4,3.3-7.7,5.8c0.4,0.3,0.7,0.7,1,1c0.1,0.2,0.5,0.4,1,0.5c1.1,0.1,2.5-0.1,4.3-0.7
		c1.7-0.6,3.5-1.6,5.4-3C472.5-149.2,473.7-150.9,473.9-152.6z"/>
</g>
<g>
	<path class="st1" d="M55.4,8.6L106.7,126H92.2L77.5,91.3H33.4L18.7,126H4.2L55.4,8.6z M55.4,38.3l-18,41.6h35.9L55.4,38.3z"/>
	<path class="st1" d="M140.4,130.4l-34.9-75H119l21.2,49.3l21.3-49.3h13.6L140.4,130.4z"/>
	<path class="st1" d="M230.5,63.3c7.4,3.1,12.9,7.3,16.6,12.5c3.7,5.2,5.6,11.3,5.6,18.4c0,10.4-3.3,18.8-9.9,25.1
		c-6.6,6.4-15.4,9.5-26.3,9.5c-8.9,0-16.4-2.3-22.4-6.8s-10.1-11-12.2-19.4l12.2-6c1.6,6.8,4.4,12,8.1,15.5
		c3.8,3.5,8.5,5.3,14.2,5.3c6.7,0,12.2-1.9,16.4-5.8c4.2-3.9,6.2-8.9,6.2-15.2c0-5-1.5-9.4-4.4-13.2c-2.9-3.7-7.3-6.9-13.2-9.4
		L207.9,68c-7.5-3.1-13.1-7.2-16.8-12.1c-3.7-4.9-5.5-10.8-5.5-17.7c0-8,3-14.7,8.9-19.9c6-5.2,13.6-7.9,22.8-7.9
		c6.8,0,12.7,1.4,17.6,4.3c5,2.9,8.8,7.1,11.6,12.7l-11.1,7.1c-2.5-4.4-5.3-7.6-8.5-9.8c-3.1-2.1-6.7-3.2-10.6-3.2
		c-5,0-9.2,1.5-12.4,4.6c-3.2,3.1-4.8,7-4.8,11.8c0,4,1.2,7.5,3.7,10.4s6.3,5.5,11.5,7.8L230.5,63.3z"/>
	<path class="st1" d="M271.2,65.3h-13v-10h13V26.9h12.3v28.5h13v10h-13V126h-12.3V65.3z"/>
	<path class="st1" d="M310.4,126V55.4h10.7V70c3.2-6.1,6.7-10.5,10.3-13.1c3.7-2.6,8.1-3.9,13.3-3.9c1.4,0,2.8,0.1,4.2,0.3
		s2.7,0.6,4,1l-4,10.9c-1.4-0.5-2.7-0.8-3.9-1s-2.4-0.3-3.5-0.3c-6.4,0-11.2,2.3-14.3,6.9c-3.2,4.6-4.8,11.5-4.8,20.8V126H310.4z"/>
	<path class="st1" d="M360,90.9c0-5.2,1-10.1,2.9-14.7c1.9-4.6,4.7-8.7,8.3-12.3c3.7-3.6,7.8-6.3,12.4-8.2c4.6-1.9,9.6-2.8,14.8-2.8
		c5.1,0,10,1,14.6,2.9c4.6,1.9,8.8,4.7,12.5,8.3c3.7,3.5,6.4,7.6,8.3,12.2c1.9,4.6,2.9,9.5,2.9,14.6c0,5.1-1,10-2.9,14.5
		c-1.9,4.6-4.7,8.6-8.3,12.1c-3.8,3.7-8,6.5-12.6,8.5s-9.5,2.9-14.5,2.9c-5.2,0-10.1-1-14.8-2.9c-4.7-1.9-8.8-4.7-12.5-8.3
		c-3.7-3.7-6.4-7.8-8.3-12.3S360,96.1,360,90.9z M372.8,90.9c0,7.5,2.5,13.8,7.5,18.9c5,5.2,11,7.8,18.1,7.8c7,0,13-2.6,18-7.8
		c4.9-5.2,7.4-11.5,7.4-18.9c0-7.5-2.5-13.8-7.4-18.9c-4.9-5.2-10.9-7.8-18-7.8c-7.1,0-13.2,2.6-18.2,7.8
		C375.3,77.1,372.8,83.4,372.8,90.9z"/>
	<path class="st1" d="M455.7,126V6.4h12.1v81l34-32H518l-35.2,32.3l38.4,38.3h-16.9l-36.4-37.3V126H455.7z"/>
	<path class="st1" d="M596.5,92.5h-55.9v1.1c0,7.6,2.2,13.7,6.5,18.3c4.3,4.7,9.9,7,16.9,7c4.7,0,9-1.3,12.8-3.8
		c3.8-2.5,7.2-6.4,10.1-11.5l9.2,6.2c-3.5,6.4-8.1,11.2-13.6,14.4c-5.5,3.2-11.9,4.9-19.1,4.9c-10.8,0-19.4-3.5-26.1-10.6
		c-6.6-7.1-10-16.4-10-27.9c0-11.1,3.3-20.1,9.9-27.2s15-10.6,25.4-10.6c10.4,0,18.7,3.3,24.8,10c6.1,6.7,9.1,15.8,9.1,27.4V92.5z
		 M583.5,82.7c-0.4-6.2-2.5-11-6.2-14.4c-3.7-3.4-8.8-5.1-15.3-5.1c-5.9,0-10.7,1.8-14.7,5.3c-3.9,3.5-6.2,8.2-6.8,14.2H583.5z"/>
</g>
</svg>
